<svg id="Layer_x0020_1" xmlns="http://www.w3.org/2000/svg" width="30.546" height="60.882" viewBox="0 0 106.546 103.882">
  <g id="adobe-experience-design-1.svg">
    <path id="Path_18" data-name="Path 18" d="M55.56,55.56h97.667v95H55.56Z" transform="translate(-51.12 -51.12)" fill="#f0f4fc"/>
    <path id="Path_19" data-name="Path 19" d="M0,0V103.882H106.546V0ZM4.44,4.44h97.667v95H4.44Z" fill="#4070f4"/>
    <path id="Path_20" data-name="Path 20" d="M308.455,327.34a6.093,6.093,0,0,0-2.575-.444c-5.594,0-9.323,4.306-9.323,11.453,0,8.168,3.818,11.453,8.79,11.453a8.381,8.381,0,0,0,3.063-.488V327.339h.045ZM288.567,338.7c0-10.343,6.659-18.424,17.58-18.424a19.715,19.715,0,0,1,2.309.089V308.827a.446.446,0,0,1,.444-.444h7.148c.355,0,.444.133.444.355v40.576a31.585,31.585,0,0,0,.222,4.35c0,.311,0,.355-.266.488a26.448,26.448,0,0,1-11.365,2.575c-9.634,0-16.515-5.948-16.515-18.024Zm-15.138-7.192,12.431,24.106c.222.355.089.71-.266.71h-7.725a.872.872,0,0,1-.933-.577q-4.262-8.79-8.7-18.246h-.089c-2.663,5.948-5.594,12.431-8.435,18.29a.854.854,0,0,1-.8.488h-7.369c-.444,0-.488-.355-.266-.622l12.164-23.4-11.764-23.262a.393.393,0,0,1,.311-.666h7.636c.444,0,.666.089.8.488,2.8,5.9,5.638,11.72,8.3,17.669h.089c2.575-5.86,5.416-11.764,8.124-17.58.222-.355.355-.577.8-.577h7.147c.355,0,.488.266.266.666l-11.72,22.508Z" transform="translate(-231.077 -283.701)" fill="#4070f4"/>
  </g>
</svg>
