<svg xmlns="http://www.w3.org/2000/svg" width="16.346" height="22.032" viewBox="0 0 16.346 22.032">
  <path id="icons8-flutter" d="M4.254,14.836l1.839,1.839a1.158,1.158,0,0,0,1.64,0L20.021,4.386A.812.812,0,0,0,19.447,3H14.93a1.156,1.156,0,0,0-.82.34L4.254,13.2A1.16,1.16,0,0,0,4.254,14.836Zm15.194-1.4H14.93a1.156,1.156,0,0,0-.82.34L9.472,18.414a1.158,1.158,0,0,0,0,1.64l4.638,4.638a1.158,1.158,0,0,0,.82.34h4.518a.812.812,0,0,0,.574-1.386l-3.592-3.592a1.158,1.158,0,0,1,0-1.64l3.592-3.592A.812.812,0,0,0,19.447,13.436Z" transform="translate(-3.915 -3)" fill="#4171f4"/>
</svg>
