<svg xmlns="http://www.w3.org/2000/svg" width="30" height="60" viewBox="0 0 266 129">
  <g id="Group_4" data-name="Group 4" transform="translate(-1625 -1331)">
    <rect id="Rectangle_2088" data-name="Rectangle 2088" width="266" height="129" transform="translate(1625 1331)" fill="#4070f4"/>
    <g id="Rectangle_2089" data-name="Rectangle 2089" transform="translate(1638 1343)" fill="#4070f4" stroke="#f0f4fc" stroke-width="1">
      <rect width="242" height="106" stroke="none"/>
      <rect x="0.5" y="0.5" width="241" height="105" fill="none"/>
    </g>
    <g id="java-programming-language" transform="translate(1663.151 1353.521)">
      <path id="Path_8" data-name="Path 8" d="M27.366,95.03s-3.25,1.888,2.309,2.524c6.734.767,10.171.657,17.59-.747a30.454,30.454,0,0,0,4.674,2.282c-16.628,7.135-37.641-.408-24.573-4.059Z" transform="translate(-7.188 -29.325)" fill="#f0f4fc" fill-rule="evenodd"/>
      <path id="Path_9" data-name="Path 9" d="M24.208,81.58s-3.644,2.7,1.922,3.27a68.64,68.64,0,0,0,22.7-1.092,10.12,10.12,0,0,0,3.5,2.13c-20.113,5.884-42.515.463-28.12-4.307Z" transform="translate(-6.063 -25.175)" fill="#f0f4fc" fill-rule="evenodd"/>
      <path id="Path_10" data-name="Path 10" d="M49.352,48.373c4.1,4.715-1.079,8.961-1.079,8.961s10.406-5.372,5.628-12.1c-4.467-6.271-7.889-9.389,10.641-20.134,0,0-29.081,7.26-15.19,23.273Z" transform="translate(-14.074 -7.746)" fill="#f0f4fc" fill-rule="evenodd"/>
      <path id="Path_11" data-name="Path 11" d="M57.273,104.66s2.4,1.977-2.648,3.512c-9.6,2.911-39.957,3.789-48.392.118-3.028-1.321,2.655-3.146,4.439-3.533a11.444,11.444,0,0,1,2.932-.332c-3.374-2.372-21.793,4.66-9.355,6.679,33.914,5.5,61.819-2.475,53.024-6.444Z" transform="translate(0 -32.075)" fill="#f0f4fc" fill-rule="evenodd"/>
      <path id="Path_12" data-name="Path 12" d="M24.789,67.634s-15.439,3.664-5.469,5c4.211.567,12.6.436,20.424-.221,6.389-.539,12.8-1.687,12.8-1.687a27.331,27.331,0,0,0-3.886,2.081C32.982,76.926,2.691,75.011,11.41,70.793a29.192,29.192,0,0,1,13.379-3.16Z" transform="translate(-3.048 -20.867)" fill="#f0f4fc" fill-rule="evenodd"/>
      <path id="Path_13" data-name="Path 13" d="M71.365,82.754c15.937-8.283,8.567-16.241,3.422-15.17a12.09,12.09,0,0,0-1.825.491,2.922,2.922,0,0,1,1.362-1.051c10.178-3.575,18,10.551-3.284,16.151a1.3,1.3,0,0,0,.325-.422Z" transform="translate(-21.926 -20.506)" fill="#f0f4fc" fill-rule="evenodd"/>
      <path id="Path_14" data-name="Path 14" d="M48.844,0s8.829,8.829-8.373,22.409c-13.794,10.89-3.146,17.106-.007,24.2-8.048-7.26-13.96-13.655-10-19.608C36.288,18.26,52.4,14.029,48.844,0Z" transform="translate(-9.015)" fill="#f0f4fc" fill-rule="evenodd"/>
      <path id="Path_15" data-name="Path 15" d="M28.35,119.015c15.3.982,38.8-.546,39.355-7.785,0,0-1.072,2.745-12.646,4.923a125.847,125.847,0,0,1-38.719.595c0,.007,1.957,1.625,12.01,2.268Z" transform="translate(-5.046 -34.324)" fill="#f0f4fc" fill-rule="evenodd"/>
    </g>
    <text id="JavaFX" transform="translate(1750 1411)" fill="#f0f4fc" font-size="35" font-family="SegoeUI, Segoe UI"><tspan x="0" y="0">JavaFX</tspan></text>
  </g>
</svg>
