<svg xmlns="http://www.w3.org/2000/svg" width="30.992" height="50.177" viewBox="0 0 157.992 214.177">
  <g id="java-programming-language" transform="translate(0.012)">
    <path id="Path_8" data-name="Path 8" d="M33.581,95.03s-8.192,4.758,5.822,6.362c16.977,1.935,25.64,1.656,44.342-1.882a76.773,76.773,0,0,0,11.783,5.752C53.608,123.25.638,104.233,33.581,95.03Z" transform="translate(17.307 70.609)" fill="#4070f4" fill-rule="evenodd"/>
    <path id="Path_9" data-name="Path 9" d="M31.166,81.58s-9.186,6.8,4.846,8.244c18.127,1.865,32.455,2.022,57.223-2.754a25.513,25.513,0,0,0,8.82,5.369C51.35,107.272-5.124,93.607,31.166,81.58Z" transform="translate(14.598 60.616)" fill="#4070f4" fill-rule="evenodd"/>
    <path id="Path_10" data-name="Path 10" d="M55.069,83.77c10.336,11.887-2.719,22.59-2.719,22.59s26.232-13.543,14.188-30.5C55.278,60.048,46.65,52.187,93.363,25.1c0,0-73.311,18.3-38.294,58.67Z" transform="translate(33.886 18.65)" fill="#4070f4" fill-rule="evenodd"/>
    <path id="Path_11" data-name="Path 11" d="M144.4,105.751s6.048,4.985-6.676,8.855c-24.193,7.338-100.729,9.552-121.994.3-7.634-3.329,6.693-7.931,11.19-8.907a28.85,28.85,0,0,1,7.39-.837C25.806,99.18-20.628,116.907,10.729,122c85.5,13.857,155.843-6.24,133.672-16.245Z" transform="translate(0 77.231)" fill="#4070f4" fill-rule="evenodd"/>
    <path id="Path_12" data-name="Path 12" d="M47.489,67.655S8.568,76.893,33.7,80.257c10.615,1.429,31.775,1.1,51.489-.558,16.106-1.36,32.281-4.253,32.281-4.253a68.9,68.9,0,0,0-9.8,5.246C68.144,91.081-8.217,86.253,13.762,75.621c18.6-8.994,33.727-7.966,33.727-7.966Z" transform="translate(7.338 50.243)" fill="#4070f4" fill-rule="evenodd"/>
    <path id="Path_13" data-name="Path 13" d="M71.859,107.548c40.177-20.881,21.6-40.944,8.628-38.242a30.483,30.483,0,0,0-4.6,1.238,7.367,7.367,0,0,1,3.434-2.649c25.657-9.011,45.388,26.6-8.279,40.717a3.278,3.278,0,0,0,.819-1.063Z" transform="translate(52.794 49.376)" fill="#4070f4" fill-rule="evenodd"/>
    <path id="Path_14" data-name="Path 14" d="M78.717,0s22.258,22.258-21.108,56.491c-34.773,27.453-7.931,43.122-.017,61.006C37.3,99.2,22.4,83.072,32.388,68.065,47.064,46.033,87.694,35.366,78.717,0Z" transform="translate(21.707)" fill="#4070f4" fill-rule="evenodd"/>
    <path id="Path_15" data-name="Path 15" d="M46.616,130.856c38.573,2.475,97.8-1.377,99.213-19.626,0,0-2.7,6.92-31.88,12.41-32.926,6.188-73.521,5.473-97.609,1.5,0,.017,4.933,4.1,30.276,5.717Z" transform="translate(12.15 82.646)" fill="#4070f4" fill-rule="evenodd"/>
  </g>
</svg>
