<svg id="php-programming-language" xmlns="http://www.w3.org/2000/svg" width="35.518" height="20.566" viewBox="0 0 119.518 60.566">
  <path id="Path_16" data-name="Path 16" d="M59.759,60.566c33,0,59.759-13.559,59.759-30.288S92.761,0,59.759,0,0,13.559,0,30.288,26.757,60.566,59.759,60.566Zm31.552-36.26c-.457-.506-1.663-.759-3.628-.759H84.717l-1.741,8.939h1.7a12.571,12.571,0,0,0,3.054-.321,4.869,4.869,0,0,0,1.78-.788,4.023,4.023,0,0,0,1.119-1.4,9.255,9.255,0,0,0,.827-2.509,7.418,7.418,0,0,0,.156-2.315,1.5,1.5,0,0,0-.3-.846ZM53.067,6.672h6.624a1.951,1.951,0,0,1,1.945,1.945,2.017,2.017,0,0,1-.058.486l-1.109,5.709h3.54a21.541,21.541,0,0,1,5.174.545,8.742,8.742,0,0,1,3.822,1.916,6.3,6.3,0,0,1,1.76,2.8l.691-3.57a1.951,1.951,0,0,1,1.926-1.692H90.222a16.55,16.55,0,0,1,5.661.885,10.105,10.105,0,0,1,4.25,2.83,9.467,9.467,0,0,1,2.179,4.562,14.814,14.814,0,0,1-.126,5.563,17.788,17.788,0,0,1-.671,2.441,14.689,14.689,0,0,1-1.021,2.247,15.6,15.6,0,0,1-1.371,2.043A16.075,16.075,0,0,1,97.4,37.223h0a14.206,14.206,0,0,1-2.422,1.838,13.45,13.45,0,0,1-2.723,1.245,16.665,16.665,0,0,1-3.132.671,29.6,29.6,0,0,1-3.7.224H81.313l-1.284,6.458A1.951,1.951,0,0,1,78.1,49.352H71.431a1.648,1.648,0,0,1-.37-.039,1.954,1.954,0,0,1-1.546-2.276l1.148-5.9a2.017,2.017,0,0,1-.486.058H63.445A1.951,1.951,0,0,1,61.5,39.246a2.017,2.017,0,0,1,.058-.486l2.607-13.432a4.736,4.736,0,0,0,.117-1.381c-.01-.1.068-.049.039-.088l-.272-.068a7.09,7.09,0,0,0-1.634-.146h-3.7l-3.083,15.98A1.936,1.936,0,0,1,53.729,41.2H47.1a1.951,1.951,0,0,1-1.945-1.945,2.017,2.017,0,0,1,.058-.486l.35-1.819-.292.272h0a14.206,14.206,0,0,1-2.422,1.838,13.45,13.45,0,0,1-2.723,1.245A16.665,16.665,0,0,1,37,40.977a29.6,29.6,0,0,1-3.7.224H29.179l-1.255,6.458A1.951,1.951,0,0,1,26,49.352H19.326a1.648,1.648,0,0,1-.37-.039,1.954,1.954,0,0,1-1.546-2.276l5.933-30.531a1.951,1.951,0,0,1,1.926-1.692H38.108a16.55,16.55,0,0,1,5.661.885,9.725,9.725,0,0,1,5.155,4.046L51.161,8.258a1.944,1.944,0,0,1,1.906-1.585ZM39.217,24.306c-.457-.506-1.663-.759-3.628-.759H32.613l-1.741,8.939h1.7a12.571,12.571,0,0,0,3.054-.321,4.869,4.869,0,0,0,1.78-.788,4.023,4.023,0,0,0,1.119-1.4,9.255,9.255,0,0,0,.827-2.509,7.418,7.418,0,0,0,.156-2.315,1.582,1.582,0,0,0-.292-.846Z" fill="#4070f4" fill-rule="evenodd"/>
  <path id="Path_17" data-name="Path 17" d="M88.227,21.845q3.808,0,5.067,1.4c.846.934,1.041,2.539.6,4.824a8.059,8.059,0,0,1-2.665,5.077c-1.313,1.012-3.326,1.517-6.011,1.517H81.166l2.49-12.829h4.571ZM53.611,8.86h6.624l-1.585,8.151h5.9q5.573,0,7.684,1.945T73.5,25.249L70.729,39.508H64l2.636-13.559c.3-1.546.185-2.6-.331-3.151s-1.624-.846-3.326-.846H57.686L54.272,39.508H47.649L53.611,8.86ZM36.133,21.845q3.808,0,5.067,1.4t.6,4.824a8.059,8.059,0,0,1-2.665,5.077c-1.313,1.012-3.326,1.517-6.011,1.517H29.071l2.49-12.829h4.571ZM19.87,47.649h6.672L28.128,39.5h5.719a20.3,20.3,0,0,0,6.225-.8,11.734,11.734,0,0,0,4.445-2.665,13.582,13.582,0,0,0,2.714-3.4,13.75,13.75,0,0,0,1.478-4.1q1.065-5.442-1.6-8.491c-1.77-2.023-4.591-3.044-8.452-3.044H25.823L19.87,47.649Zm52.095,0h6.672L80.222,39.5h5.719a20.3,20.3,0,0,0,6.225-.8,11.734,11.734,0,0,0,4.445-2.665,13.582,13.582,0,0,0,2.714-3.4,13.75,13.75,0,0,0,1.478-4.1q1.065-5.442-1.6-8.491c-1.77-2.023-4.591-3.044-8.452-3.044H77.917L71.965,47.649Z" transform="translate(-0.544 -0.242)" fill-rule="evenodd"/>
</svg>
