<svg xmlns="http://www.w3.org/2000/svg" width="38" height="30" viewBox="0 0 46 34">
  <path id="icons8-qt" d="M9.434,8A1.8,1.8,0,0,0,8.1,8.551Q5.348,11.287,2.578,14A1.822,1.822,0,0,0,2,15.367c.008,8.039.008,24.016.008,25.516L2.078,42h1c1.473,0,25.445,0,37.473,0a1.9,1.9,0,0,0,1.395-.578q2.725-2.719,5.473-5.406a1.884,1.884,0,0,0,.582-1.4C47.992,26.246,48,9,48,9V8Zm9.66,6a11.332,11.332,0,0,1,2.8.32,5.7,5.7,0,0,1,4,3.34,11.979,11.979,0,0,1,.887,3.234,22.749,22.749,0,0,1,.211,3.605,18.106,18.106,0,0,1-.578,4.625,6.631,6.631,0,0,1-1.543,2.84c-.293.309-.633.574-.969.879.777,1.238,1.563,2.492,2.379,3.789-.988.457-1.953.9-2.965,1.367q-1.277-2.068-2.531-4.094a12.393,12.393,0,0,1-4.875-.242,5.52,5.52,0,0,1-3.883-3.3,11.959,11.959,0,0,1-.809-2.992A20.932,20.932,0,0,1,11,24.051a17.743,17.743,0,0,1,.59-4.879,12.662,12.662,0,0,1,.645-1.707,5.557,5.557,0,0,1,3.656-3.07,9.614,9.614,0,0,1,2.254-.375C18.461,14.008,18.777,14,19.094,14ZM31,16h3v4h4v3H34s-.012,3.109,0,5c0,.531.02,1.348.063,1.875a2.264,2.264,0,0,0,.082.418.829.829,0,0,0,.652.629,3.758,3.758,0,0,0,.809.078c.625-.012,1.414-.109,2.039-.133a2.092,2.092,0,0,1,.219.019c.066.785.109,1.879.137,2.7-.285.055-.551.105-.812.152a11.993,11.993,0,0,1-2.984.234,4.828,4.828,0,0,1-1.441-.344,2.366,2.366,0,0,1-1.293-1.3A6.059,6.059,0,0,1,31,30V23H29V20h2ZM19,17.02a7.444,7.444,0,0,0-1.777.215,3.368,3.368,0,0,0-2.3,1.7,5.168,5.168,0,0,0-.3.652,9.9,9.9,0,0,0-.609,3.32c-.027,1.043,0,2.09.051,3.133a8.487,8.487,0,0,0,.606,2.723,3.35,3.35,0,0,0,2.551,2.055,8.048,8.048,0,0,0,3.6-.008,3.228,3.228,0,0,0,2.434-1.934,7.291,7.291,0,0,0,.285-.8A17.309,17.309,0,0,0,24,23.785c-.059-.609-.117-1.594-.242-2.57a6.412,6.412,0,0,0-.738-2.328,3.351,3.351,0,0,0-2.25-1.652A7.437,7.437,0,0,0,19,17.02Z" transform="translate(-2 -8)" fill="#4070f4"/>
</svg>
